<?xml version="1.0" encoding="UTF-8"?>
<svg version="1.1" xmlns="http://www.w3.org/2000/svg" width="1024" height="1024">
<path d="M0 0 C0.79209804 -0.00297112 1.58419609 -0.00594224 2.40029711 -0.0090034 C5.05157906 -0.01766718 7.70281574 -0.0191967 10.35411072 -0.02069092 C12.25653682 -0.02532084 14.158962 -0.03034574 16.06138611 -0.03573608 C21.22908597 -0.04884778 26.39677285 -0.05530298 31.56448674 -0.05974674 C34.79603897 -0.06268025 38.02758766 -0.06678566 41.25913811 -0.07125092 C51.3783002 -0.08492438 61.4974542 -0.09459103 71.61662489 -0.09845281 C83.28148039 -0.10292933 94.94621846 -0.12045905 106.61103827 -0.1494534 C115.6371567 -0.17110665 124.66324219 -0.18115908 133.68938631 -0.18249393 C139.07543132 -0.1835396 144.46136593 -0.18939655 149.8473835 -0.20731354 C154.91911942 -0.22385659 159.9906627 -0.22591955 165.06241608 -0.21717453 C166.91666367 -0.21640741 168.77092188 -0.22070365 170.62514305 -0.23063278 C189.88017963 -0.32763464 206.60877303 3.17714568 221.0120697 16.8081665 C247.1542917 42.99040211 238.23385317 91.25892955 238.21192026 124.91403818 C238.2097925 127.63738638 238.20748619 130.36073439 238.20509219 133.08408237 C238.20074319 138.61276658 238.20385877 144.14142804 238.20872033 149.67011082 C238.21383104 155.73084192 238.21325921 161.79155875 238.21033859 167.85229111 C238.20967662 170.39818196 238.21047192 172.94407367 238.21281815 175.48996353 C238.21537812 179.04030789 238.21145959 182.59059039 238.20591736 186.14093018 C238.20794159 187.16757782 238.20996582 188.19422546 238.21205139 189.25198364 C238.15736981 208.30968623 235.94566375 226.49339034 221.76402283 240.64044189 C220.87714783 241.46544189 219.99027283 242.29044189 219.07652283 243.14044189 C218.41652283 244.13044189 217.75652283 245.12044189 217.07652283 246.14044189 C215.60941747 247.37933086 214.14027848 248.61611526 212.65074158 249.82794189 C209.11320602 252.7773512 206.07920729 256.11222054 203.13902283 259.64044189 C200.37594226 262.91362964 197.4050837 265.44926502 194.07652283 268.14044189 C192.3894086 269.786407 190.72196063 271.45281338 189.07652283 273.14044189 C188.30824158 273.89712158 187.53996033 274.65380127 186.74839783 275.43341064 C183.10563946 279.12410004 179.7110021 283.02005088 176.28355408 286.90997314 C175.55523376 287.64602783 174.82691345 288.38208252 174.07652283 289.14044189 C173.41652283 289.14044189 172.75652283 289.14044189 172.07652283 289.14044189 C171.68128418 290.02267426 171.68128418 290.02267426 171.27806091 290.92272949 C170.02414712 293.2371132 168.70590706 294.76472304 166.85191345 296.62384033 C166.19783508 297.28422302 165.54375671 297.94460571 164.86985779 298.625 C163.81200073 299.67678436 163.81200073 299.67678436 162.73277283 300.74981689 C162.00787659 301.47662659 161.28298035 302.20343628 160.53611755 302.95227051 C159.00533272 304.48441469 157.47202586 306.01404265 155.93638611 307.5413208 C153.57841513 309.88855821 151.23132736 312.24629968 148.88511658 314.60528564 C147.39747647 316.09160472 145.90921639 317.57730358 144.42027283 319.06231689 C143.71503479 319.77160339 143.00979675 320.48088989 142.28318787 321.21166992 C141.30207031 322.18333099 141.30207031 322.18333099 140.3011322 323.17462158 C139.72536438 323.74879822 139.14959656 324.32297485 138.55638123 324.91455078 C137.07652283 326.14044189 137.07652283 326.14044189 135.07652283 326.14044189 C134.80710876 326.73469971 134.5376947 327.32895752 134.26011658 327.94122314 C128.6555588 338.35497241 115.11742028 347.70803854 104.07652283 351.14044189 C90.05435316 354.26985315 78.61018091 353.04175808 66.14439392 345.61529541 C56.26485153 338.56897716 47.76684428 329.01718924 39.20835876 320.45758057 C37.29218915 318.54364831 35.3680773 316.63792493 33.44371033 314.73223877 C32.22187027 313.51332459 31.00049739 312.29394189 29.77964783 311.07403564 C29.20482666 310.50639999 28.63000549 309.93876434 28.0377655 309.35392761 C24.07652283 305.3693309 24.07652283 305.3693309 24.07652283 303.14044189 C23.41652283 303.14044189 22.75652283 303.14044189 22.07652283 303.14044189 C22.07652283 302.48044189 22.07652283 301.82044189 22.07652283 301.14044189 C21.45777283 300.89294189 20.83902283 300.64544189 20.20152283 300.39044189 C17.72583596 298.9341555 17.1252728 297.76231683 16.07652283 295.14044189 C15.41652283 295.14044189 14.75652283 295.14044189 14.07652283 295.14044189 C14.07652283 294.48044189 14.07652283 293.82044189 14.07652283 293.14044189 C13.45777283 292.89294189 12.83902283 292.64544189 12.20152283 292.39044189 C9.72583596 290.9341555 9.1252728 289.76231683 8.07652283 287.14044189 C7.41652283 287.14044189 6.75652283 287.14044189 6.07652283 287.14044189 C6.07652283 286.48044189 6.07652283 285.82044189 6.07652283 285.14044189 C5.08652283 284.81044189 4.09652283 284.48044189 3.07652283 284.14044189 C3.07652283 283.48044189 3.07652283 282.82044189 3.07652283 282.14044189 C2.41652283 282.14044189 1.75652283 282.14044189 1.07652283 282.14044189 C-0.15003967 280.85528564 -0.15003967 280.85528564 -1.54847717 279.07794189 C-4.44559098 275.56866154 -7.61911278 272.64984615 -11.09144592 269.71856689 C-12.79635402 268.2499467 -14.42944707 266.82411669 -15.92347717 265.14044189 C-15.92347717 264.48044189 -15.92347717 263.82044189 -15.92347717 263.14044189 C-16.58347717 263.14044189 -17.24347717 263.14044189 -17.92347717 263.14044189 C-17.92347717 262.48044189 -17.92347717 261.82044189 -17.92347717 261.14044189 C-18.49195374 260.89938721 -19.0604303 260.65833252 -19.64613342 260.40997314 C-22.37136625 258.89076102 -24.19038057 257.06625209 -26.36097717 254.82794189 C-27.1473053 254.02356689 -27.93363342 253.21919189 -28.74378967 252.39044189 C-29.82273499 251.27669189 -29.82273499 251.27669189 -30.92347717 250.14044189 C-31.85160217 249.21231689 -32.77972717 248.28419189 -33.73597717 247.32794189 C-34.45785217 246.60606689 -35.17972717 245.88419189 -35.92347717 245.14044189 C-36.68660217 244.41856689 -37.44972717 243.69669189 -38.23597717 242.95294189 C-39.92347717 241.14044189 -39.92347717 241.14044189 -39.92347717 239.14044189 C-40.58347717 239.14044189 -41.24347717 239.14044189 -41.92347717 239.14044189 C-50.98613494 229.25876201 -57.02132517 217.14748238 -57.07064819 203.59675598 C-57.07432488 202.94097516 -57.07800157 202.28519433 -57.08178967 201.60954136 C-57.09279659 199.41353472 -57.09666533 197.21757546 -57.10047913 195.02154541 C-57.10674631 193.4460078 -57.11339334 191.87047166 -57.12039185 190.29493713 C-57.14141403 185.11975123 -57.15179632 179.94456512 -57.16175842 174.76934814 C-57.16580744 172.98411481 -57.16992441 171.19888163 -57.17410851 169.41364861 C-57.19316051 161.02069876 -57.2073884 152.62775769 -57.21572047 144.23479038 C-57.22547652 134.56838024 -57.25175318 124.90220008 -57.29222137 115.2358709 C-57.32246935 107.75199528 -57.33719777 100.26818524 -57.34050149 92.78424972 C-57.34284316 88.3208663 -57.35168709 83.85772855 -57.37696266 79.39441109 C-57.40039917 75.18772272 -57.40441472 70.98143903 -57.39420128 66.77470207 C-57.39370948 65.24015322 -57.39992357 63.70558338 -57.41375732 62.1710968 C-57.56612067 44.25113194 -52.36556944 29.37148828 -40.05628967 16.12091064 C-36.65864394 12.96595389 -32.90751937 10.49213347 -28.92347717 8.14044189 C-29.25347717 7.48044189 -29.58347717 6.82044189 -29.92347717 6.14044189 C-28.77878967 6.01669189 -28.77878967 6.01669189 -27.61097717 5.89044189 C-23.40313166 5.03460891 -19.60576811 3.62070166 -15.60707092 2.07794189 C-10.39753916 0.25801813 -5.48228207 -0.00645434 0 0 Z " fill="#D4DBE2" transform="translate(398.92347717285156,225.85955810546875)"/>
<path d="M0 0 C0.94359375 0.43957031 1.8871875 0.87914062 2.859375 1.33203125 C8.8642273 4.46948715 13.6694663 8.30234018 18.55273438 12.9387207 C19.19258522 13.54146726 19.83243607 14.14421381 20.49167633 14.76522541 C29.93441916 23.71516644 39.1286372 32.92258042 48.34375 42.10546875 C49.34625111 43.1039068 50.34877928 44.10231768 51.35133362 45.10070229 C56.05405502 49.7845106 60.75445392 54.47063411 65.45193815 59.15969485 C70.82870728 64.52665312 76.21370796 69.88517598 81.60564184 75.23689765 C85.81098464 79.41197097 90.00851728 83.59479611 94.20040369 87.78337938 C96.68885291 90.2694968 99.18038504 92.7523099 101.68034363 95.22685814 C104.4641276 97.98278006 107.2316242 100.75472238 109.99804688 103.52807617 C110.80958221 104.32680145 111.62111755 105.12552673 112.45724487 105.94845581 C119.38999004 112.94437253 125.04765239 120.84729628 128.8125 130 C129.19019531 130.886875 129.56789063 131.77375 129.95703125 132.6875 C132.95006227 142.1934562 133.31888666 151.60629685 133.3359375 161.51171875 C133.34238894 162.89256417 133.34911889 164.27340831 133.35610962 165.6542511 C133.36800254 168.53442545 133.37179888 171.41448061 133.37060547 174.29467773 C133.37044316 177.21452672 133.38430418 180.13374671 133.41162109 183.0534668 C133.63066095 206.83620598 133.30150526 228.89187367 115.87890625 247.2109375 C109.75454807 253.04244695 103.45865247 257.54023941 95.9375 261.375 C95.28918213 261.70886719 94.64086426 262.04273438 93.97290039 262.38671875 C85.39626404 266.5711788 77.01450629 267.30058231 67.5703125 267.3347168 C65.89880426 267.35214369 65.89880426 267.35214369 64.19352818 267.36992264 C60.50403445 267.40579829 56.81460343 267.42772778 53.125 267.44921875 C50.50934799 267.4710592 47.89370158 267.49357996 45.27806091 267.51673889 C38.29326522 267.57632432 31.30842418 267.62065851 24.32349777 267.66160583 C20.00610189 267.6870248 15.68873657 267.7162622 11.37136841 267.74597168 C-21.85595345 267.97200727 -55.08595407 268.16583278 -88.31268311 267.77505875 C-90.5454322 267.7501901 -92.77817829 267.73027294 -95.01098633 267.71151733 C-99.07155081 267.67576591 -103.13123708 267.61395266 -107.19140625 267.546875 C-108.32107315 267.53729263 -109.45074005 267.52771027 -110.61463928 267.51783752 C-129.80577552 267.10148231 -144.66085994 260.20157683 -158.25390625 246.7734375 C-162.52749251 242.18358963 -165.77457203 237.37459827 -168.7734375 231.87109375 C-169.38058594 230.94490234 -169.38058594 230.94490234 -170 230 C-170.66 230 -171.32 230 -172 230 C-172.1953125 228.14453125 -172.390625 226.2890625 -172.5859375 224.43359375 C-172.97123848 221.8454849 -172.97123848 221.8454849 -173.98730469 218.81762695 C-177.38219188 206.01968795 -176.1587993 191.36782503 -176.13037109 178.20556641 C-176.12498157 175.2398575 -176.1303682 172.27429828 -176.13671875 169.30859375 C-176.14889773 144.22788233 -173.85919547 125.4096891 -155.99511719 106.41796875 C-155.09244425 105.45530342 -155.09244425 105.45530342 -154.17153549 104.47319031 C-145.92468357 95.73459339 -137.42538945 87.2418916 -128.93811131 78.73792267 C-127.49727812 77.29411525 -126.05701518 75.84974117 -124.61690521 74.4052124 C-120.08500107 69.85973544 -115.55117677 65.31618725 -111.0144341 60.7755394 C-105.82226897 55.57887554 -100.63675698 50.37568891 -95.4567759 45.16688061 C-91.41500104 41.1034109 -87.36740329 37.04580067 -83.31543326 32.99249744 C-80.91058747 30.58661206 -78.50814852 28.17844411 -76.11182404 25.7640686 C-73.44262654 23.07772489 -70.76402213 20.40110606 -68.08300781 17.7265625 C-66.9216053 16.55133781 -66.9216053 16.55133781 -65.73674011 15.35237122 C-48.48731965 -1.76764729 -23.30456365 -11.34564283 0 0 Z " fill="#92AFB9" transform="translate(694,480)"/>
<path d="M0 0 C3.24259561 3.06035378 6.40831346 6.19010243 9.55297852 9.35131836 C10.15110352 9.90819336 10.74922852 10.46506836 11.36547852 11.03881836 C12.55297852 12.35131836 12.55297852 12.35131836 12.55297852 14.35131836 C13.48110352 14.72256836 13.48110352 14.72256836 14.42797852 15.10131836 C16.90366538 16.55760475 17.50422854 17.72944342 18.55297852 20.35131836 C19.21297852 20.35131836 19.87297852 20.35131836 20.55297852 20.35131836 C22.17797852 21.72631836 22.17797852 21.72631836 23.55297852 23.35131836 C23.55297852 24.01131836 23.55297852 24.67131836 23.55297852 25.35131836 C24.21297852 25.35131836 24.87297852 25.35131836 25.55297852 25.35131836 C26.91474773 26.99483293 28.24259917 28.66654492 29.55297852 30.35131836 C31.20349742 32.0369002 32.87134996 33.69712298 34.55297852 35.35131836 C35.99720702 36.78403942 37.44091866 38.21728157 38.88427734 39.65087891 C39.70475052 40.4648967 40.52522369 41.27891449 41.37055969 42.11759949 C44.58350019 45.30739657 47.79278659 48.50085174 51.000844 51.6955595 C53.43480314 54.1190201 55.87062823 56.54054613 58.31054688 58.95800781 C61.13252145 61.75418894 63.94647296 64.55836491 66.76000977 67.36303711 C67.64114944 68.23385422 68.52228912 69.10467133 69.43013 70.00187683 C70.23484238 70.80643814 71.03955475 71.61099945 71.86865234 72.43994141 C72.58193192 73.14877975 73.29521149 73.8576181 74.03010559 74.5879364 C75.55297852 76.35131836 75.55297852 76.35131836 75.55297852 78.35131836 C76.17172852 78.59881836 76.79047852 78.84631836 77.42797852 79.10131836 C79.90366538 80.55760475 80.50422854 81.72944342 81.55297852 84.35131836 C82.21297852 84.35131836 82.87297852 84.35131836 83.55297852 84.35131836 C83.55297852 85.01131836 83.55297852 85.67131836 83.55297852 86.35131836 C84.38829102 86.66069336 84.38829102 86.66069336 85.24047852 86.97631836 C88.42341798 88.86887696 90.26937477 91.46676627 92.55297852 94.35131836 C93.21297852 95.01131836 93.87297852 95.67131836 94.55297852 96.35131836 C95.91946856 98.8347907 97.22187371 101.31876418 98.49047852 103.85131836 C99.01158203 104.85678711 99.01158203 104.85678711 99.54321289 105.88256836 C105.14153671 117.01595811 106.01639967 127.22522862 105.98657227 139.49584961 C105.99114421 141.15435497 105.99645276 142.81285845 106.00245667 144.47135925 C106.01135077 147.93508636 106.00900821 151.39858247 105.99902344 154.86230469 C105.98755476 159.26658092 106.00773162 163.67005281 106.03694057 168.07422352 C106.05542987 171.49668818 106.05498474 174.91896474 106.04930305 178.3414669 C106.0491513 179.96351942 106.05507257 181.58558591 106.06759453 183.2075901 C106.18842301 201.42495169 101.63181403 216.59087263 88.83032227 230.07397461 C74.09290599 244.81139088 58.21403354 250.84488218 37.63540649 250.88232422 C35.89544459 250.87295711 34.15548486 250.86317801 32.41552734 250.85302734 C30.54117936 250.85681966 28.6668342 250.86232717 26.79249573 250.86940002 C21.74716315 250.88324996 16.70217558 250.87226033 11.6568625 250.85568881 C6.35340815 250.84173992 1.04997185 250.84830928 -4.25349426 250.8518219 C-13.1526133 250.85451558 -22.05159681 250.84111866 -30.95068359 250.81787109 C-41.21469034 250.79124218 -51.478471 250.78952526 -61.74250048 250.80125946 C-71.65290521 250.81206512 -81.56322879 250.80582988 -91.47362709 250.79170418 C-95.67547861 250.78597102 -99.87727021 250.78600587 -104.07912254 250.79076958 C-109.03119665 250.79556728 -113.98302537 250.78532274 -118.93505287 250.76381493 C-120.74414365 250.75828568 -122.5532582 250.7577459 -124.36235046 250.76276779 C-143.38680157 250.80892777 -160.10245083 247.38899355 -174.20874023 233.65209961 C-174.94737305 232.8928418 -175.68600586 232.13358398 -176.44702148 231.35131836 C-177.1547168 230.66424805 -177.86241211 229.97717773 -178.59155273 229.26928711 C-192.98931156 214.43106147 -195.59424202 195.08365287 -195.61499023 175.30834961 C-195.61831863 174.18168381 -195.62164703 173.05501801 -195.62507629 171.89421082 C-195.63011268 169.52176315 -195.63248564 167.14930848 -195.63232422 164.77685547 C-195.63450463 161.1915285 -195.6526794 157.6065127 -195.67163086 154.02124023 C-195.75066964 122.34541726 -195.75066964 122.34541726 -189.44702148 108.35131836 C-189.06030273 107.47217773 -188.67358398 106.59303711 -188.27514648 105.68725586 C-184.69070461 98.37077745 -179.67156453 92.89039168 -174.05639648 87.10131836 C-171.38386891 84.44111148 -171.38386891 84.44111148 -169.44702148 81.35131836 C-168.78702148 81.35131836 -168.12702148 81.35131836 -167.44702148 81.35131836 C-167.20838379 80.78598389 -166.96974609 80.22064941 -166.72387695 79.63818359 C-165.17090647 76.85679267 -163.29384057 74.99018234 -161.01733398 72.76147461 C-160.13948242 71.89458008 -159.26163086 71.02768555 -158.35717773 70.13452148 C-157.43807617 69.23668945 -156.51897461 68.33885742 -155.57202148 67.41381836 C-153.75981874 65.63621921 -151.94984484 63.85634439 -150.14233398 62.07397461 C-149.33812012 61.28772705 -148.53390625 60.50147949 -147.70532227 59.69140625 C-145.3698138 57.35530104 -145.3698138 57.35530104 -143.27856445 54.55615234 C-142.67415527 53.82855713 -142.06974609 53.10096191 -141.44702148 52.35131836 C-140.78702148 52.35131836 -140.12702148 52.35131836 -139.44702148 52.35131836 C-139.22860596 51.80620605 -139.01019043 51.26109375 -138.78515625 50.69946289 C-137.0052851 47.57616409 -134.59013334 45.26708866 -132.03686523 42.78100586 C-131.24560997 41.99755295 -131.24560997 41.99755295 -130.43836975 41.19827271 C-128.75845019 39.53611502 -127.07197877 37.88082031 -125.38452148 36.22631836 C-123.69439132 34.56380862 -122.00574428 32.89985882 -120.31996155 31.23294067 C-119.27211177 30.19734616 -118.22160035 29.16443653 -117.16819763 28.13449097 C-114.46340719 25.50541522 -114.46340719 25.50541522 -112.44702148 22.35131836 C-111.78702148 22.35131836 -111.12702148 22.35131836 -110.44702148 22.35131836 C-110.44702148 21.69131836 -110.44702148 21.03131836 -110.44702148 20.35131836 C-109.78702148 20.35131836 -109.12702148 20.35131836 -108.44702148 20.35131836 C-108.2258667 19.80709229 -108.00471191 19.26286621 -107.77685547 18.70214844 C-106.02102682 15.59826115 -103.66596617 13.24539268 -101.16967773 10.73803711 C-100.64369492 10.20539749 -100.1177121 9.67275787 -99.57579041 9.12397766 C-98.45958805 7.99766424 -97.34066838 6.87403814 -96.21923828 5.75292969 C-94.53591424 4.06527896 -92.86921098 2.36236818 -91.20288086 0.65795898 C-62.91633881 -27.92529413 -29.1006435 -27.12727649 0 0 Z " fill="#BACEE6" transform="translate(353.447021484375,496.648681640625)"/>
<path d="M0 0 C1.07193604 0.17631958 1.07193604 0.17631958 2.16552734 0.35620117 C6.312923 1.12651617 9.54073791 2.16330065 12.9375 4.6875 C15.07509439 7.89389159 15.1913921 8.73163312 15.21165466 12.41842651 C15.22162979 13.39136658 15.23160492 14.36430664 15.24188232 15.36672974 C15.242547 16.43277435 15.24321167 17.49881897 15.24389648 18.59716797 C15.25222 19.72098877 15.26054352 20.84480957 15.26911926 22.00268555 C15.29327154 25.72838781 15.30199767 29.45391519 15.30859375 33.1796875 C15.31755577 35.76417088 15.32667752 38.34865371 15.33595276 40.93313599 C15.35245933 46.35534273 15.36017912 51.77747882 15.36303711 57.19970703 C15.3666722 63.46362997 15.39656481 69.72706286 15.43844169 75.99083602 C15.47733199 82.01954015 15.48862994 88.04797275 15.48976326 94.07681656 C15.49397556 96.6405109 15.50644995 99.20420528 15.52728081 101.76781845 C15.55408645 105.35199599 15.54940074 108.93481694 15.53686523 112.51904297 C15.55911667 114.1120372 15.55911667 114.1120372 15.58181763 115.73721313 C15.51001673 122.93359559 15.51001673 122.93359559 12.52503967 126.86428833 C9.9375 128.6875 9.9375 128.6875 7.9375 129.02734375 C7.2775 128.89457031 6.6175 128.76179687 5.9375 128.625 C5.15246094 128.4909375 4.36742187 128.356875 3.55859375 128.21875 C2.69363281 128.0434375 1.82867188 127.868125 0.9375 127.6875 C-21.11290605 123.5625272 -41.82538455 125.56894227 -62.0625 135.6875 C-68.22896754 136.50969567 -72.7102697 134.36927464 -78.37890625 132.0625 C-82.35813638 130.57714581 -86.31864008 129.45293838 -90.4375 128.4375 C-91.09097412 128.27475586 -91.74444824 128.11201172 -92.41772461 127.94433594 C-104.17880028 125.12419255 -114.34008841 124.89738708 -126.01953125 128.03125 C-129.28056868 128.73452893 -131.74725865 129.14782724 -135.0625 128.6875 C-137.99516947 126.64678197 -139.79608605 125.01322977 -140.5179882 121.42089844 C-140.69405381 118.51426484 -140.70339202 115.6461553 -140.66186523 112.734375 C-140.66580795 111.62976929 -140.66975067 110.52516357 -140.67381287 109.38708496 C-140.68052418 105.73676164 -140.65135518 102.08768945 -140.62109375 98.4375 C-140.61684357 95.90071861 -140.61451507 93.36393334 -140.61402893 90.82714844 C-140.60786182 85.51087542 -140.58578829 80.19503214 -140.54956055 74.87890625 C-140.50782896 68.73892391 -140.49024548 62.59926444 -140.4869408 56.45914841 C-140.48368396 50.54470519 -140.46856431 44.63035022 -140.4469471 38.71594238 C-140.43806445 36.20252136 -140.43133466 33.68909178 -140.42678642 31.17565918 C-140.41774724 27.66383482 -140.39535837 24.15235583 -140.36889648 20.640625 C-140.36823181 19.60047241 -140.36756714 18.56031982 -140.36688232 17.48864746 C-140.3569072 16.52978638 -140.34693207 15.57092529 -140.33665466 14.58300781 C-140.33200416 13.75343567 -140.32735365 12.92386353 -140.32256222 12.06915283 C-139.93021948 8.47607346 -138.95872321 5.61819333 -136.4375 3 C-129.04710465 -1.08416585 -120.71109357 -0.68499823 -112.5012207 -0.68310547 C-110.39645983 -0.68745565 -108.29384146 -0.72379297 -106.18945312 -0.76171875 C-95.27136122 -0.85178256 -83.69872043 0.37992887 -75.0625 7.6875 C-69.44372046 13.77451117 -68.76637916 18.98530071 -68.77539062 26.9440918 C-68.76855759 27.86819855 -68.76172455 28.7923053 -68.75468445 29.74441528 C-68.74111988 31.74579635 -68.73205157 33.74721184 -68.72697449 35.74863243 C-68.71868172 38.91277013 -68.69817558 42.07661976 -68.67443848 45.24067688 C-68.61804523 53.09479713 -68.58275148 60.94898702 -68.54681396 68.80322266 C-68.51562621 75.44728252 -68.47649182 82.09120123 -68.42655945 88.73514748 C-68.40643237 91.85841851 -68.39816131 94.98158168 -68.39025879 98.10490417 C-68.37729319 100.00963745 -68.36377389 101.91436706 -68.34960938 103.8190918 C-68.35059128 104.69236618 -68.35157318 105.56564056 -68.35258484 106.46537781 C-68.51404064 111.05461506 -68.51404064 111.05461506 -66.0625 114.6875 C-63.5625 115.02083333 -63.5625 115.02083333 -61.0625 114.6875 C-58.40058972 112.02558972 -58.81435614 110.0338071 -58.78352356 106.4130249 C-58.78607651 105.53197083 -58.78862946 104.65091675 -58.79125977 103.74316406 C-58.78603302 102.81616699 -58.78080627 101.88916992 -58.77542114 100.93408203 C-58.76516152 98.91627959 -58.75939733 96.89845053 -58.75753975 94.88062286 C-58.75388692 91.68621895 -58.73718885 88.49212855 -58.71678162 85.29779053 C-58.661273 76.21388583 -58.6307073 67.12993397 -58.60620117 58.04589844 C-58.59031668 52.4932737 -58.56008345 46.94086952 -58.52143669 41.38835907 C-58.50978961 39.27211603 -58.50385637 37.1558335 -58.50375557 35.03955841 C-58.50356329 32.07594333 -58.48527873 29.11293484 -58.46313477 26.14941406 C-58.46771194 25.27645691 -58.47228912 24.40349976 -58.477005 23.50408936 C-58.40823603 17.70825757 -57.42591302 13.50855002 -53.58984375 8.9296875 C-39.29535969 -3.36286636 -17.65906566 -2.96212917 0 0 Z " fill="#57737E" transform="translate(737.0625,566.3125)"/>
<path d="M0 0 C5.30632522 2.45336227 9.13380515 6.83978313 13.1875 10.9375 C13.91130859 11.65357422 14.63511719 12.36964844 15.38085938 13.10742188 C16.07373047 13.80287109 16.76660156 14.49832031 17.48046875 15.21484375 C18.10848389 15.84511475 18.73649902 16.47538574 19.38354492 17.12475586 C22.76064572 21.04251922 23.59084505 24.51838591 23.41796875 29.59765625 C21.79716688 38.91348007 11.72076362 47.23078975 5.66064453 54.10546875 C3.15846103 56.9600621 0.6995045 59.85017727 -1.75 62.75 C-2.20076904 63.28334961 -2.65153809 63.81669922 -3.1159668 64.36621094 C-6.68582976 68.60285678 -10.19027434 72.89090847 -13.6875 77.1875 C-16.26146545 80.31799851 -18.87576903 83.41165634 -21.5 86.5 C-26.40548801 92.27546025 -31.21834183 98.12147401 -36 104 C-38.24492391 106.74553412 -40.49150389 109.4896537 -42.7421875 112.23046875 C-44.28125771 114.11835937 -45.80680554 116.0173356 -47.3203125 117.92578125 C-48.08085938 118.87839844 -48.84140625 119.83101563 -49.625 120.8125 C-50.29789063 121.66457031 -50.97078125 122.51664062 -51.6640625 123.39453125 C-58.16761662 130.64849546 -65.93932718 134.98902528 -74.4375 139.5625 C-76.81316675 140.85187267 -79.18601723 142.14635882 -81.55859375 143.44140625 C-83.23236084 144.35152466 -83.23236084 144.35152466 -84.93994141 145.2800293 C-87.54887263 146.74643431 -90.05096181 148.28759194 -92.55078125 149.9296875 C-96.73582451 152.60255801 -100.13600413 152.99187367 -105 152 C-107.625 150.5625 -107.625 150.5625 -109 148 C-108.66384156 140.6228585 -106.67319645 134.20857535 -104.23828125 127.2734375 C-103.65762154 125.61461044 -103.65762154 125.61461044 -103.06523132 123.92227173 C-102.24138602 121.58882256 -101.41149588 119.25749979 -100.57592773 116.92822266 C-99.73962331 114.57622758 -98.92031961 112.21811197 -98.11889648 109.85400391 C-93.1415146 95.17139482 -88.13137073 83.75987429 -76.44459534 73.31980896 C-74.57583836 71.6124781 -72.93710412 69.7508154 -71.3125 67.8125 C-68.44315202 64.478245 -65.47993482 61.23520111 -62.5 58 C-58.85507756 54.04074367 -55.25739503 50.04871807 -51.734375 45.98046875 C-49.72735462 43.68866845 -47.67597149 41.44003248 -45.625 39.1875 C-42.44240212 35.66989182 -39.40882038 32.07252949 -36.4375 28.375 C-33.18027816 24.34439966 -29.76520749 20.69852968 -26.03515625 17.109375 C-23.63890349 14.6257349 -21.5626001 11.96840215 -19.4375 9.25 C-13.78009036 2.26542406 -9.21270618 -1.04014425 0 0 Z " fill="#5C6771" transform="translate(564,284)"/>
<path d="M0 0 C3.63910362 3.04669141 6.17621884 5.71615652 7.6875 10.25 C8.14051631 17.1584988 7.12169929 21.19781601 2.671875 26.77734375 C1.93453125 27.57269531 1.1971875 28.36804688 0.4375 29.1875 C-0.35914063 30.04988281 -1.15578125 30.91226563 -1.9765625 31.80078125 C-4.48464692 34.43049518 -7.04361717 36.9975564 -9.63671875 39.54296875 C-11.42303443 41.36259568 -13.08727835 43.25453917 -14.75 45.1875 C-17.78929651 48.71634763 -21.02266847 51.98005027 -24.33984375 55.24609375 C-26.88587829 57.83246151 -29.23271557 60.5653528 -31.59765625 63.31640625 C-33.81419397 65.81569138 -36.18412281 68.13281884 -38.56640625 70.47265625 C-40.37727643 72.31593574 -42.06571354 74.22822799 -43.75 76.1875 C-46.16867779 78.99576347 -48.67149683 81.64970593 -51.3125 84.25 C-53.91232183 86.80990134 -56.37518398 89.4177954 -58.75 92.1875 C-71.047092 106.43069143 -71.047092 106.43069143 -77.9765625 107.76171875 C-82.38248008 108.02328378 -85.88753463 108.09450823 -89.7578125 105.80078125 C-91.88358066 103.90920788 -93.86341778 101.94245113 -95.79736328 99.85595703 C-97.56832908 97.97883602 -99.40167691 96.17607188 -101.24609375 94.37109375 C-107.25131146 88.47355581 -113.1047901 82.5460911 -118.60473633 76.17163086 C-121.80596552 72.56950434 -125.29883556 69.25957299 -128.76953125 65.91992188 C-135.87510287 58.95713361 -135.87510287 58.95713361 -136.74609375 53.56640625 C-136.75455727 47.59962545 -136.48515359 43.86188029 -132.3125 39.25 C-131.4875 38.30125 -130.6625 37.3525 -129.8125 36.375 C-126.0453928 33.40552009 -121.93244429 33.6896093 -117.3125 33.68359375 C-110.97448276 34.88022461 -106.71804482 39.54445207 -102.375 44 C-101.85212402 44.52859619 -101.32924805 45.05719238 -100.79052734 45.60180664 C-97.90050558 48.54601071 -95.11993933 51.55101749 -92.4375 54.6875 C-89.59642197 57.98370218 -86.93731033 60.80719304 -83.3125 63.25 C-79.66765624 63.25 -77.78902384 61.99259709 -75.2265625 59.58984375 C-74.11920568 58.46646972 -73.0232816 57.33174065 -71.9375 56.1875 C-71.07378784 55.30058472 -71.07378784 55.30058472 -70.19262695 54.39575195 C-66.64363681 50.72640606 -63.22226505 46.9659455 -59.91796875 43.07421875 C-57.5010487 40.327986 -54.87511815 37.80401214 -52.26953125 35.23828125 C-50.42519014 33.36448958 -48.70617934 31.43686529 -47 29.4375 C-43.64882894 25.53419092 -40.02863543 21.93282978 -36.36669922 18.32592773 C-33.65925622 15.64413224 -31.08739948 12.90754721 -28.625 10 C-20.59639485 0.64292061 -12.30720631 -6.50192032 0 0 Z " fill="#5B6671" transform="translate(370.3125,581.75)"/>
<path d="M0 0 C0.80063873 -0.00525696 1.60127747 -0.01051392 2.42617798 -0.01593018 C5.0649992 -0.02910178 7.70321396 -0.02040147 10.34204102 -0.01025391 C12.18140274 -0.01227566 14.02076369 -0.01518795 15.86012268 -0.01895142 C19.71265301 -0.02337109 23.56497445 -0.01695594 27.41748047 -0.00292969 C32.34820687 0.01414994 37.27844291 0.00432652 42.20915127 -0.01364708 C46.00706148 -0.02450483 49.8048561 -0.02102923 53.60276985 -0.0132637 C55.42039104 -0.01126658 57.23802282 -0.01370381 59.05563164 -0.02070236 C61.5998691 -0.02834831 64.14332083 -0.01666848 66.6875 0 C67.80752663 -0.00910904 67.80752663 -0.00910904 68.95018005 -0.0184021 C74.93845543 0.05402837 78.94040712 1.52372451 83.28344727 5.63818359 C85.39385304 9.20963951 85.41151967 11.29173689 84.90844727 15.38818359 C83.30937975 19.54575913 81.76156491 22.10039499 77.90844727 24.38818359 C74.24523871 25.60925311 70.85932842 25.55161337 67.04394531 25.56518555 C65.84342529 25.57504234 65.84342529 25.57504234 64.61865234 25.58509827 C61.96915594 25.60481421 59.31971615 25.61648971 56.67016602 25.62646484 C55.76470346 25.63054037 54.85924091 25.6346159 53.9263401 25.63881493 C49.13432672 25.65966783 44.3423419 25.67397324 39.55029297 25.68334961 C34.60378165 25.69441586 29.65771996 25.72882041 24.71136761 25.76852131 C20.90490386 25.79467848 17.09854744 25.80304061 13.29200172 25.80663109 C11.46876805 25.81149893 9.64553922 25.82311856 7.82239342 25.84166908 C5.26827818 25.86604303 2.71532899 25.86509904 0.16113281 25.8581543 C-0.5886937 25.87096436 -1.3385202 25.88377441 -2.11106873 25.89697266 C-7.24706216 25.84619088 -10.12909205 24.61000567 -14.09155273 21.38818359 C-16.4645744 18.46145687 -17.05121899 16.70509155 -17.52905273 12.95068359 C-17.00389102 8.6743668 -15.85167483 6.67049095 -13.09155273 3.38818359 C-8.89287982 0.15377153 -5.1197841 -0.041526 0 0 Z " fill="#A1AFB8" transform="translate(422.091552734375,299.61181640625)"/>
<path d="M0 0 C0.84691406 -0.03738281 1.69382812 -0.07476562 2.56640625 -0.11328125 C6.84899675 -0.1732242 9.8560669 -0.03511196 13.31640625 2.6484375 C16.5561284 6.27817436 16.5561284 6.27817436 16.4375 9.375 C16.44330078 10.3340625 16.44330078 10.3340625 16.44921875 11.3125 C15.26676743 14.80040111 13.72206004 16.19623418 10.75 18.375 C7.21145394 19.08054405 3.78397389 19.02858113 0.1875 18.9375 C-1.23079102 18.95393555 -1.23079102 18.95393555 -2.67773438 18.97070312 C-9.54097241 18.89794795 -9.54097241 18.89794795 -12.83984375 16.46484375 C-15.25166934 12.89053159 -15.675756 10.71771123 -15.25 6.375 C-10.88955837 -0.16566245 -7.31072025 0.12020616 0 0 Z " fill="#A1AFB8" transform="translate(420.25,380.625)"/>
<path d="M0 0 C4.24908336 1.59846469 6.82225739 4.8130392 9.75 8.125 C10.25660156 8.68832031 10.76320313 9.25164062 11.28515625 9.83203125 C12.52884532 11.21651531 13.76516305 12.60761488 15 14 C10.86626386 17.20652667 6.44244621 19.65844803 1.875 22.1875 C1.05128906 22.65091797 0.22757812 23.11433594 -0.62109375 23.59179688 C-1.80251953 24.24825195 -1.80251953 24.24825195 -3.0078125 24.91796875 C-3.72598145 25.31781982 -4.44415039 25.7176709 -5.18408203 26.12963867 C-7 27 -7 27 -9 27 C-6.43696551 17.84951721 -3.20468777 8.93993804 0 0 Z " fill="#DAE0E5" transform="translate(484,387)"/>
<path d="M0 0 C0 3 0 3 -1.23754883 4.54638672 C-2.08869263 5.35487061 -2.08869263 5.35487061 -2.95703125 6.1796875 C-3.57513672 6.77910156 -4.19324219 7.37851562 -4.83007812 7.99609375 C-5.48427734 8.61613281 -6.13847656 9.23617187 -6.8125 9.875 C-10.84345508 13.71593012 -14.24105163 17.11878365 -17 22 C-20.85482467 26.28803353 -25.0318522 30.29157794 -29.5 33.9375 C-32.04590598 35.75403019 -32.04590598 35.75403019 -33 38 C-33.66 37.67 -34.32 37.34 -35 37 C-34.31164062 36.22076172 -34.31164062 36.22076172 -33.609375 35.42578125 C-30.88819799 32.33301494 -28.20354452 29.26405775 -25.6875 26 C-25.130625 25.34 -24.57375 24.68 -24 24 C-23.34 24 -22.68 24 -22 24 C-21.7642627 23.43829102 -21.52852539 22.87658203 -21.28564453 22.29785156 C-19.69599628 19.45664964 -17.74656724 17.52192715 -15.4296875 15.234375 C-14.53378906 14.34492187 -13.63789063 13.45546875 -12.71484375 12.5390625 C-11.77769531 11.61867188 -10.84054688 10.69828125 -9.875 9.75 C-8.92011363 8.80515144 -7.96568141 7.85984367 -7.01171875 6.9140625 C-4.67890913 4.60481662 -2.34155914 2.30036797 0 0 Z " fill="#A2B5C9" transform="translate(208,554)"/>
<path d="M0 0 C-1.95585325 1.00484204 -3.91476237 2.00373805 -5.875 3 C-6.96554687 3.556875 -8.05609375 4.11375 -9.1796875 4.6875 C-12 6 -12 6 -14 6 C-14.309375 6.8353125 -14.309375 6.8353125 -14.625 7.6875 C-16.14383179 10.24189892 -17.96355993 11.68220386 -20.28125 13.5 C-22.96153396 15.83915691 -25.13916505 18.57939266 -27.38671875 21.328125 C-29 23 -29 23 -32 24 C-28.75712648 14.72766314 -21.22213081 8.85334111 -13 4 C-13.33 3.34 -13.66 2.68 -14 2 C-13.113125 1.87625 -12.22625 1.7525 -11.3125 1.625 C-8.04109142 1.12691191 -8.04109142 1.12691191 -5.3125 -0.125 C-3 -1 -3 -1 0 0 Z " fill="#C2C6CC" transform="translate(383,230)"/>
<path d="M0 0 C3.02990095 1.71967351 5.76327296 3.29238306 8 6 C8 6.66 8 7.32 8 8 C8.61875 8.2475 9.2375 8.495 9.875 8.75 C12.35068687 10.20628639 12.95125002 11.37812506 14 14 C14.66 14 15.32 14 16 14 C16 14.99 16 15.98 16 17 C12.65876526 15.5466378 10.43458035 13.70404484 7.875 11.125 C7.19179688 10.44695313 6.50859375 9.76890625 5.8046875 9.0703125 C4.09250905 7.1061251 3.13438535 5.31896474 2 3 C1.34 2.67 0.68 2.34 0 2 C0 1.34 0 0.68 0 0 Z " fill="#B4C5D9" transform="translate(358,503)"/>
<path d="M0 0 C0.721875 0.598125 1.44375 1.19625 2.1875 1.8125 C4.83723473 3.99042557 4.83723473 3.99042557 7.375 5.3125 C11.04947819 7.67466455 14.28893406 10.56233714 17 14 C17 14.99 17 15.98 17 17 C16.34 17 15.68 17 15 17 C15 16.34 15 15.68 15 15 C14.34 15 13.68 15 13 15 C13 14.34 13 13.68 13 13 C12.43796875 12.7628125 11.8759375 12.525625 11.296875 12.28125 C8.48105958 10.71052303 6.52044584 8.78528536 4.25 6.5 C3.45078125 5.7059375 2.6515625 4.911875 1.828125 4.09375 C0 2 0 2 0 0 Z " fill="#C2C9D1" transform="translate(368,474)"/>
<path d="M0 0 C1.64528614 3.12752591 2.91702499 6.3053057 4.125 9.625 C4.47820313 10.58664062 4.83140625 11.54828125 5.1953125 12.5390625 C6 15 6 15 6 17 C6.99 17.33 7.98 17.66 9 18 C9.33 19.98 9.66 21.96 10 24 C3.50485323 17.72882381 0.25405684 11.09736422 -0.125 2 C-0.08375 1.34 -0.0425 0.68 0 0 Z " fill="#799199" transform="translate(520,694)"/>
<path d="M0 0 C0.66 0.66 1.32 1.32 2 2 C1.33613281 2.59167969 0.67226563 3.18335938 -0.01171875 3.79296875 C-4.44938962 7.7641983 -8.85786795 11.71979688 -13 16 C-13.66 15.67 -14.32 15.34 -15 15 C-10.05 10.05 -5.1 5.1 0 0 Z " fill="#D7EBF6" transform="translate(313,672)"/>
<path d="M0 0 C0.33 0.66 0.66 1.32 1 2 C-0.36328125 4.56640625 -0.36328125 4.56640625 -2.3125 7.5625 C-3.26576172 9.04943359 -3.26576172 9.04943359 -4.23828125 10.56640625 C-6 13 -6 13 -8 14 C-6.52307692 7.35384615 -6.52307692 7.35384615 -3.875 5.5625 C-2.946875 5.2840625 -2.946875 5.2840625 -2 5 C-2 3.68 -2 2.36 -2 1 C-1.34 0.67 -0.68 0.34 0 0 Z " fill="#A9BED2" transform="translate(452,710)"/>
<path d="M0 0 C0.66 0.33 1.32 0.66 2 1 C1.45015228 4.87511727 -0.27555331 6.59576506 -3.0625 9.25 C-3.79597656 9.95640625 -4.52945313 10.6628125 -5.28515625 11.390625 C-5.85105469 11.92171875 -6.41695312 12.4528125 -7 13 C-7.66 12.67 -8.32 12.34 -9 12 C-8.195625 11.2575 -7.39125 10.515 -6.5625 9.75 C-4.07466712 7.08013056 -3.66757654 6.33788271 -3 3 C-1.4375 1.25 -1.4375 1.25 0 0 Z " fill="#B5C9DF" transform="translate(212,549)"/>
<path d="M0 0 C2.62187494 1.04874998 3.79371361 1.64931313 5.25 4.125 C5.4975 4.74375 5.745 5.3625 6 6 C6.66 6 7.32 6 8 6 C8 6.66 8 7.32 8 8 C9.32 8.66 10.64 9.32 12 10 C11.67 10.66 11.34 11.32 11 12 C6.74475939 9.44685563 4.26805145 7.42270033 2 3 C1.34 2.01 0.68 1.02 0 0 Z " fill="#A9BACD" transform="translate(429,575)"/>
<path d="M0 0 C1.2077558 3.62326739 0.54311128 4.64146369 -1 8 C0.32 7.67 1.64 7.34 3 7 C0.79038253 9.54106009 -0.73988358 10.30621489 -4 11 C-3.5247412 9.35303396 -3.04468109 7.70745272 -2.5625 6.0625 C-2.29566406 5.14597656 -2.02882813 4.22945313 -1.75390625 3.28515625 C-1 1 -1 1 0 0 Z " fill="#ECEFF2" transform="translate(479,403)"/>
<path d="M0 0 C0 4.13781054 -1.71509607 5.20919996 -4.5 8.1875 C-5.3353125 9.08855469 -6.170625 9.98960937 -7.03125 10.91796875 C-7.6809375 11.60503906 -8.330625 12.29210937 -9 13 C-9.66 12.67 -10.32 12.34 -11 12 C-9.54234835 10.37438849 -8.08385614 8.74953066 -6.625 7.125 C-5.81289063 6.22007812 -5.00078125 5.31515625 -4.1640625 4.3828125 C-2.80923795 2.89103817 -1.42494565 1.42494565 0 0 Z " fill="#3E4850" transform="translate(330,604)"/>
<path d="M0 0 C0.66 0.33 1.32 0.66 2 1 C-0.97 4.3 -3.94 7.6 -7 11 C-7.66 10.67 -8.32 10.34 -9 10 C-8.34 9.01 -7.68 8.02 -7 7 C-6.34 7 -5.68 7 -5 7 C-4.731875 6.401875 -4.46375 5.80375 -4.1875 5.1875 C-3.01506533 3.02775192 -1.80630718 1.64209744 0 0 Z " fill="#C1D5ED" transform="translate(180,585)"/>
<path d="M0 0 C4.75481646 0.57634139 7.97048212 2.55068521 12 5 C9.30439815 6.34780093 8.257383 5.67336458 5.4375 4.75 C4.22900391 4.37101562 4.22900391 4.37101562 2.99609375 3.984375 C2.33738281 3.65953125 1.67867188 3.3346875 1 3 C0.67 2.01 0.34 1.02 0 0 Z " fill="#ACBED1" transform="translate(326,479)"/>
<path d="M0 0 C0.33 0 0.66 0 1 0 C1.061875 1.0725 1.12375 2.145 1.1875 3.25 C1.66322247 7.08050507 1.66322247 7.08050507 4.3125 9.3125 C6.50731998 10.69064278 8.63378193 11.94834752 11 13 C7.34186183 12.71860476 4.68103694 12.43656214 1.5625 10.4375 C-0.73566228 6.85236684 -0.28061483 4.20922245 0 0 Z " fill="#EEF0F4" transform="translate(454,425)"/>
<path d="M0 0 C4.95 0 9.9 0 15 0 C15 0.33 15 0.66 15 1 C10.05 1 5.1 1 0 1 C0 0.67 0 0.34 0 0 Z " fill="#CDD0D5" transform="translate(453,224)"/>
<path d="M0 0 C0.33 0 0.66 0 1 0 C1 3.63 1 7.26 1 11 C0.67 11 0.34 11 0 11 C0 7.37 0 3.74 0 0 Z " fill="#8CA4AD" transform="translate(828,637)"/>
<path d="M0 0 C0.33 0 0.66 0 1 0 C1 2.31 1 4.62 1 7 C0.67 7 0.34 7 0 7 C0 4.69 0 2.38 0 0 Z " fill="#8DA5AD" transform="translate(828,657)"/>
<path d="M0 0 C0.33 0 0.66 0 1 0 C1 1.65 1 3.3 1 5 C0.67 5 0.34 5 0 5 C0 3.35 0 1.7 0 0 Z " fill="#8DA4AC" transform="translate(828,667)"/>
<path d="M0 0 C0.33 0 0.66 0 1 0 C1 1.65 1 3.3 1 5 C0.67 5 0.34 5 0 5 C0 3.35 0 1.7 0 0 Z " fill="#8CA5AD" transform="translate(828,651)"/>
<path d="M0 0 C1.65 0 3.3 0 5 0 C5 0.33 5 0.66 5 1 C3.35 1 1.7 1 0 1 C0 0.67 0 0.34 0 0 Z " fill="#CDD6E1" transform="translate(480,579)"/>
<path d="M0 0 C1 4 1 4 1 4 Z " fill="#8DA4AD" transform="translate(828,676)"/>
<path d="M0 0 C1 4 1 4 1 4 Z " fill="#8BA3AC" transform="translate(828,632)"/>
<path d="M0 0 C0.66 0.66 1.32 1.32 2 2 C1.01 1.67 0.02 1.34 -1 1 C-0.67 0.67 -0.34 0.34 0 0 Z " fill="#D3DCE5" transform="translate(449,558)"/>
<path d="M0 0 C4 1 4 1 4 1 Z " fill="#CDD3D7" transform="translate(552,224)"/>
<path d="M0 0 C4 1 4 1 4 1 Z " fill="#CDD1D4" transform="translate(440,224)"/>
<path d="M0 0 C3 1 3 1 3 1 Z " fill="#B0C3D7" transform="translate(213,748)"/>
<path d="M0 0 C3 1 3 1 3 1 Z " fill="#8DA5AD" transform="translate(568,747)"/>
<path d="M0 0 C3 1 3 1 3 1 Z " fill="#B2C3D8" transform="translate(208,747)"/>
<path d="" fill="#BECFE2" transform="translate(0,0)"/>
<path d="M0 0 C0.99 0.495 0.99 0.495 2 1 C1.01 1.495 1.01 1.495 0 2 C0 1.34 0 0.68 0 0 Z " fill="#CDD7E1" transform="translate(467,574)"/>
<path d="M0 0 C0.33 0.66 0.66 1.32 1 2 C0.34 1.67 -0.32 1.34 -1 1 C-0.67 0.67 -0.34 0.34 0 0 Z " fill="#D3DBE5" transform="translate(433,542)"/>
<path d="M0 0 C3 1 3 1 3 1 Z " fill="#C3D4E4" transform="translate(333,480)"/>
<path d="" fill="#CED6DD" transform="translate(0,0)"/>
<path d="" fill="#D1D6DC" transform="translate(0,0)"/>
<path d="M0 0 C3 1 3 1 3 1 Z " fill="#CDD1D5" transform="translate(577,224)"/>
<path d="M0 0 C3 1 3 1 3 1 Z " fill="#CFD3D6" transform="translate(569,224)"/>
<path d="M0 0 C3 1 3 1 3 1 Z " fill="#CED3D7" transform="translate(545,224)"/>
<path d="M0 0 C3 1 3 1 3 1 Z " fill="#CED3D6" transform="translate(504,224)"/>
<path d="M0 0 C3 1 3 1 3 1 Z " fill="#CDD1D6" transform="translate(489,224)"/>
<path d="M0 0 C3 1 3 1 3 1 Z " fill="#CED3D7" transform="translate(417,224)"/>
<path d="M0 0 C3 1 3 1 3 1 Z " fill="#CED2D5" transform="translate(409,224)"/>
<path d="M0 0 C2 1 2 1 2 1 Z " fill="#8BA4AB" transform="translate(768,749)"/>
<path d="M0 0 C2 1 2 1 2 1 Z " fill="#B1C4D7" transform="translate(407,747)"/>
<path d="" fill="#95ACB5" transform="translate(0,0)"/>
<path d="" fill="#AFC3D8" transform="translate(0,0)"/>
<path d="" fill="#B1C3DA" transform="translate(0,0)"/>
<path d="" fill="#B2C6DB" transform="translate(0,0)"/>
<path d="M0 0 C2 1 2 1 2 1 Z " fill="#B4C5DB" transform="translate(169,592)"/>
<path d="M0 0 C2 1 2 1 2 1 Z " fill="#CBD5DB" transform="translate(509,575)"/>
<path d="M0 0 C2 1 2 1 2 1 Z " fill="#C8D3DA" transform="translate(520,567)"/>
<path d="" fill="#93ADB4" transform="translate(0,0)"/>
<path d="" fill="#BACADD" transform="translate(0,0)"/>
<path d="" fill="#CED6DE" transform="translate(0,0)"/>
<path d="" fill="#CFD7DE" transform="translate(0,0)"/>
<path d="" fill="#CED4DA" transform="translate(0,0)"/>
<path d="" fill="#CED5DC" transform="translate(0,0)"/>
<path d="" fill="#D1D8DD" transform="translate(0,0)"/>
<path d="M0 0 C2 1 2 1 2 1 Z " fill="#C9CDD2" transform="translate(618,240)"/>
<path d="M0 0 C2 1 2 1 2 1 Z " fill="#C9CCD2" transform="translate(593,226)"/>
<path d="M0 0 C2 1 2 1 2 1 Z " fill="#CDD2D7" transform="translate(529,224)"/>
<path d="M0 0 C2 1 2 1 2 1 Z " fill="#CFD2D8" transform="translate(493,224)"/>
<path d="M0 0 C2 1 2 1 2 1 Z " fill="#CED1D5" transform="translate(449,224)"/>
<path d="M0 0 C2 1 2 1 2 1 Z " fill="#D0D3D6" transform="translate(425,224)"/>
<path d="M0 0 C2 1 2 1 2 1 Z " fill="#CFD1D6" transform="translate(422,224)"/>
<path d="M0 0 C2 1 2 1 2 1 Z " fill="#CDD2D7" transform="translate(402,224)"/>
<path d="" fill="#383D3F" transform="translate(0,0)"/>
<path d="" fill="#AABFD1" transform="translate(0,0)"/>
<path d="" fill="#8EA9AF" transform="translate(0,0)"/>
<path d="" fill="#8FA8B1" transform="translate(0,0)"/>
<path d="" fill="#91AAB1" transform="translate(0,0)"/>
<path d="" fill="#93ABB3" transform="translate(0,0)"/>
<path d="" fill="#91AAB3" transform="translate(0,0)"/>
<path d="" fill="#92AAB4" transform="translate(0,0)"/>
<path d="" fill="#90A8B1" transform="translate(0,0)"/>
<path d="" fill="#8FA6AF" transform="translate(0,0)"/>
<path d="" fill="#8DA6AE" transform="translate(0,0)"/>
<path d="" fill="#B0C3D7" transform="translate(0,0)"/>
<path d="" fill="#B3C4D6" transform="translate(0,0)"/>
<path d="" fill="#8CA5AC" transform="translate(0,0)"/>
<path d="" fill="#B0C2D8" transform="translate(0,0)"/>
<path d="" fill="#8EA7AE" transform="translate(0,0)"/>
<path d="" fill="#8EABB5" transform="translate(0,0)"/>
<path d="" fill="#B4C7DA" transform="translate(0,0)"/>
<path d="" fill="#8EA7B0" transform="translate(0,0)"/>
<path d="" fill="#B0C1D8" transform="translate(0,0)"/>
<path d="" fill="#AEBFD3" transform="translate(0,0)"/>
<path d="" fill="#B1C3D6" transform="translate(0,0)"/>
<path d="" fill="#B1C3DA" transform="translate(0,0)"/>
<path d="" fill="#B1C3D6" transform="translate(0,0)"/>
<path d="" fill="#ACC1D4" transform="translate(0,0)"/>
<path d="" fill="#B4C9DC" transform="translate(0,0)"/>
<path d="" fill="#ADC1D4" transform="translate(0,0)"/>
<path d="" fill="#92AAB2" transform="translate(0,0)"/>
<path d="" fill="#ACC0D4" transform="translate(0,0)"/>
<path d="" fill="#ABBED2" transform="translate(0,0)"/>
<path d="" fill="#91AAB2" transform="translate(0,0)"/>
<path d="" fill="#AEBED3" transform="translate(0,0)"/>
<path d="" fill="#ACBFD6" transform="translate(0,0)"/>
<path d="" fill="#AFC2D6" transform="translate(0,0)"/>
<path d="" fill="#93ADB5" transform="translate(0,0)"/>
<path d="" fill="#AFC2D7" transform="translate(0,0)"/>
<path d="" fill="#ADBFD4" transform="translate(0,0)"/>
<path d="" fill="#8BA4AB" transform="translate(0,0)"/>
<path d="" fill="#B6C8DC" transform="translate(0,0)"/>
<path d="" fill="#B7C9DC" transform="translate(0,0)"/>
<path d="" fill="#B7C8DC" transform="translate(0,0)"/>
<path d="" fill="#99B0BA" transform="translate(0,0)"/>
<path d="" fill="#B8CBE0" transform="translate(0,0)"/>
<path d="" fill="#8DA6AD" transform="translate(0,0)"/>
<path d="" fill="#9DB1BD" transform="translate(0,0)"/>
<path d="" fill="#8CA5AC" transform="translate(0,0)"/>
<path d="" fill="#8CA4AC" transform="translate(0,0)"/>
<path d="" fill="#8EA5AD" transform="translate(0,0)"/>
<path d="" fill="#8DA4AD" transform="translate(0,0)"/>
<path d="" fill="#8EA7AE" transform="translate(0,0)"/>
<path d="" fill="#8DA5AD" transform="translate(0,0)"/>
<path d="" fill="#BFCFE4" transform="translate(0,0)"/>
<path d="" fill="#B9CCE1" transform="translate(0,0)"/>
<path d="" fill="#A3BBC5" transform="translate(0,0)"/>
<path d="" fill="#A4BAC2" transform="translate(0,0)"/>
<path d="" fill="#C3D3E5" transform="translate(0,0)"/>
<path d="" fill="#BFCEDF" transform="translate(0,0)"/>
<path d="" fill="#B9C8DE" transform="translate(0,0)"/>
<path d="" fill="#90ABB1" transform="translate(0,0)"/>
<path d="" fill="#B5C4D7" transform="translate(0,0)"/>
<path d="" fill="#C2D2E3" transform="translate(0,0)"/>
<path d="" fill="#C4D3E3" transform="translate(0,0)"/>
<path d="" fill="#CAD4DF" transform="translate(0,0)"/>
<path d="" fill="#CBD7E1" transform="translate(0,0)"/>
<path d="" fill="#CCD4DF" transform="translate(0,0)"/>
<path d="" fill="#C9D5DD" transform="translate(0,0)"/>
<path d="" fill="#D1D8E2" transform="translate(0,0)"/>
<path d="" fill="#CED7E0" transform="translate(0,0)"/>
<path d="" fill="#CED8E0" transform="translate(0,0)"/>
<path d="" fill="#C8D2DA" transform="translate(0,0)"/>
<path d="" fill="#D0D7E2" transform="translate(0,0)"/>
<path d="" fill="#CFD7E5" transform="translate(0,0)"/>
<path d="" fill="#C0CEE2" transform="translate(0,0)"/>
<path d="" fill="#B5C8DC" transform="translate(0,0)"/>
<path d="" fill="#C9D2D9" transform="translate(0,0)"/>
<path d="" fill="#B8C7DB" transform="translate(0,0)"/>
<path d="" fill="#A4BAC1" transform="translate(0,0)"/>
<path d="" fill="#A4BCC8" transform="translate(0,0)"/>
<path d="" fill="#BACBDF" transform="translate(0,0)"/>
<path d="" fill="#C7D6E5" transform="translate(0,0)"/>
<path d="" fill="#D1D8E2" transform="translate(0,0)"/>
<path d="" fill="#B6C8DB" transform="translate(0,0)"/>
<path d="" fill="#CAD8E5" transform="translate(0,0)"/>
<path d="" fill="#D0D8E2" transform="translate(0,0)"/>
<path d="" fill="#D0DAE2" transform="translate(0,0)"/>
<path d="" fill="#D4DCE3" transform="translate(0,0)"/>
<path d="" fill="#CFD8E0" transform="translate(0,0)"/>
<path d="" fill="#93ABB5" transform="translate(0,0)"/>
<path d="" fill="#CED8E1" transform="translate(0,0)"/>
<path d="" fill="#91ABB5" transform="translate(0,0)"/>
<path d="" fill="#A5BEC5" transform="translate(0,0)"/>
<path d="" fill="#C8D1D7" transform="translate(0,0)"/>
<path d="" fill="#B5C6DA" transform="translate(0,0)"/>
<path d="" fill="#92ACB5" transform="translate(0,0)"/>
<path d="" fill="#B5C7DA" transform="translate(0,0)"/>
<path d="" fill="#C7D1D7" transform="translate(0,0)"/>
<path d="" fill="#CFDAE3" transform="translate(0,0)"/>
<path d="" fill="#B9CADF" transform="translate(0,0)"/>
<path d="" fill="#CFD9E2" transform="translate(0,0)"/>
<path d="" fill="#91AAB4" transform="translate(0,0)"/>
<path d="" fill="#CCDBEB" transform="translate(0,0)"/>
<path d="" fill="#C5CFD5" transform="translate(0,0)"/>
<path d="" fill="#D3D9E3" transform="translate(0,0)"/>
<path d="" fill="#D4DBE3" transform="translate(0,0)"/>
<path d="" fill="#D4DDE8" transform="translate(0,0)"/>
<path d="" fill="#D8DFE9" transform="translate(0,0)"/>
<path d="" fill="#D0D8E1" transform="translate(0,0)"/>
<path d="" fill="#93ACB3" transform="translate(0,0)"/>
<path d="" fill="#B7C8DB" transform="translate(0,0)"/>
<path d="" fill="#92AAB3" transform="translate(0,0)"/>
<path d="" fill="#D2D9E2" transform="translate(0,0)"/>
<path d="" fill="#A5BBC0" transform="translate(0,0)"/>
<path d="" fill="#D3DDE5" transform="translate(0,0)"/>
<path d="" fill="#94ACB6" transform="translate(0,0)"/>
<path d="" fill="#C7D7E5" transform="translate(0,0)"/>
<path d="" fill="#D5DFE8" transform="translate(0,0)"/>
<path d="" fill="#D0D8E3" transform="translate(0,0)"/>
<path d="" fill="#8FA9B4" transform="translate(0,0)"/>
<path d="" fill="#C7D5E2" transform="translate(0,0)"/>
<path d="" fill="#D5DFE7" transform="translate(0,0)"/>
<path d="" fill="#C7D5E3" transform="translate(0,0)"/>
<path d="" fill="#CAD3DA" transform="translate(0,0)"/>
<path d="" fill="#B6C7DD" transform="translate(0,0)"/>
<path d="" fill="#C9D2D7" transform="translate(0,0)"/>
<path d="" fill="#D2DAE0" transform="translate(0,0)"/>
<path d="" fill="#CFDAE0" transform="translate(0,0)"/>
<path d="" fill="#D2DBE4" transform="translate(0,0)"/>
<path d="" fill="#CAD2D8" transform="translate(0,0)"/>
<path d="" fill="#D2D9E6" transform="translate(0,0)"/>
<path d="" fill="#93ADB5" transform="translate(0,0)"/>
<path d="" fill="#D1D9E2" transform="translate(0,0)"/>
<path d="" fill="#C4D3E3" transform="translate(0,0)"/>
<path d="" fill="#BECEE2" transform="translate(0,0)"/>
<path d="" fill="#BFCEE2" transform="translate(0,0)"/>
<path d="" fill="#D1D9E1" transform="translate(0,0)"/>
<path d="" fill="#A4B6C0" transform="translate(0,0)"/>
<path d="" fill="#C1CEE0" transform="translate(0,0)"/>
<path d="" fill="#B9C9DB" transform="translate(0,0)"/>
<path d="" fill="#9EB5BD" transform="translate(0,0)"/>
<path d="" fill="#A2B9C1" transform="translate(0,0)"/>
<path d="" fill="#C3D0E1" transform="translate(0,0)"/>
<path d="" fill="#BECFE1" transform="translate(0,0)"/>
<path d="" fill="#9FB6C1" transform="translate(0,0)"/>
<path d="" fill="#CFD7E2" transform="translate(0,0)"/>
<path d="" fill="#C2CEE2" transform="translate(0,0)"/>
<path d="" fill="#BECEE2" transform="translate(0,0)"/>
<path d="" fill="#BDCFE0" transform="translate(0,0)"/>
<path d="" fill="#D1DBE5" transform="translate(0,0)"/>
<path d="" fill="#D3DFE7" transform="translate(0,0)"/>
<path d="" fill="#CED4DD" transform="translate(0,0)"/>
<path d="" fill="#D2DAE3" transform="translate(0,0)"/>
<path d="" fill="#D4DEE6" transform="translate(0,0)"/>
<path d="" fill="#CFD7E1" transform="translate(0,0)"/>
<path d="" fill="#D2DCE2" transform="translate(0,0)"/>
<path d="" fill="#CDD3DA" transform="translate(0,0)"/>
<path d="" fill="#CED4DC" transform="translate(0,0)"/>
<path d="" fill="#D2D9DE" transform="translate(0,0)"/>
<path d="" fill="#D2D8DC" transform="translate(0,0)"/>
<path d="" fill="#D3D7DC" transform="translate(0,0)"/>
<path d="" fill="#D2D7DB" transform="translate(0,0)"/>
<path d="" fill="#D4D7DC" transform="translate(0,0)"/>
<path d="" fill="#D2D6DB" transform="translate(0,0)"/>
<path d="" fill="#D4D7DC" transform="translate(0,0)"/>
<path d="" fill="#D3D7DB" transform="translate(0,0)"/>
<path d="" fill="#D3D8DB" transform="translate(0,0)"/>
<path d="" fill="#D3D7DB" transform="translate(0,0)"/>
<path d="" fill="#D2D6DC" transform="translate(0,0)"/>
<path d="" fill="#D3D7DC" transform="translate(0,0)"/>
<path d="" fill="#D4D6DB" transform="translate(0,0)"/>
<path d="" fill="#D3D8DA" transform="translate(0,0)"/>
<path d="" fill="#D2D7DA" transform="translate(0,0)"/>
<path d="" fill="#D3D5DA" transform="translate(0,0)"/>
<path d="" fill="#CBCED3" transform="translate(0,0)"/>
<path d="" fill="#C9CBD2" transform="translate(0,0)"/>
<path d="" fill="#CACFD6" transform="translate(0,0)"/>
<path d="" fill="#C9CBD2" transform="translate(0,0)"/>
<path d="" fill="#CCD1D5" transform="translate(0,0)"/>
<path d="" fill="#C6C8CD" transform="translate(0,0)"/>
<path d="" fill="#C6C9D1" transform="translate(0,0)"/>
<path d="" fill="#CACFD2" transform="translate(0,0)"/>
<path d="" fill="#C9CBD1" transform="translate(0,0)"/>
<path d="" fill="#CACBD2" transform="translate(0,0)"/>
<path d="" fill="#CBCDD2" transform="translate(0,0)"/>
<path d="" fill="#C9CCD0" transform="translate(0,0)"/>
<path d="" fill="#CACED3" transform="translate(0,0)"/>
<path d="" fill="#D0D4D7" transform="translate(0,0)"/>
<path d="" fill="#CFD3D6" transform="translate(0,0)"/>
<path d="" fill="#D0D4D8" transform="translate(0,0)"/>
<path d="" fill="#D0D5D9" transform="translate(0,0)"/>
<path d="" fill="#CED3D7" transform="translate(0,0)"/>
<path d="" fill="#CFD4D6" transform="translate(0,0)"/>
<path d="" fill="#CFD4D7" transform="translate(0,0)"/>
<path d="" fill="#CED2D7" transform="translate(0,0)"/>
<path d="" fill="#D0D3D8" transform="translate(0,0)"/>
<path d="" fill="#D0D6D7" transform="translate(0,0)"/>
<path d="" fill="#D0D3D7" transform="translate(0,0)"/>
<path d="" fill="#CFD2D7" transform="translate(0,0)"/>
<path d="" fill="#CED1D6" transform="translate(0,0)"/>
<path d="" fill="#CED1D4" transform="translate(0,0)"/>
<path d="" fill="#CCD1D7" transform="translate(0,0)"/>
<path d="" fill="#CDD0D4" transform="translate(0,0)"/>
<path d="" fill="#CBCFD2" transform="translate(0,0)"/>
</svg>
